<mxfile host="app.diagrams.net" modified="2023-04-30T01:03:41.460Z" agent="Mozilla/5.0 (Windows NT 10.0; Win64; x64) AppleWebKit/537.36 (KHTML, like Gecko) Chrome/109.0.0.0 Safari/537.36" etag="qdSCRcC2pbnIRKgZ1ir6" version="21.2.3" type="device">
  <diagram name="PÃ¡gina-1" id="bBYtHrwEhwjM6XD0leTx">
    <mxGraphModel dx="880" dy="480" grid="1" gridSize="10" guides="1" tooltips="1" connect="1" arrows="1" fold="1" page="1" pageScale="1" pageWidth="827" pageHeight="1169" math="0" shadow="0">
      <root>
        <mxCell id="0" />
        <mxCell id="1" parent="0" />
        <mxCell id="vx2pljIWrjoiTe4-OmPC-2" value="" style="shape=image;verticalLabelPosition=bottom;labelBackgroundColor=default;verticalAlign=top;aspect=fixed;imageAspect=0;image=data:image/png,iVBORw0KGgoAAAANSUhEUgAAAbkAAAJXCAMAAAA5LNp1AAAALHRFWHRDcmVhdGlvbiBUaW1lAGp1ZSAxMiBhYnIgMjAwNyAyMjozNTozMyArMDEwMEqsxegAAAAHdElNRQfXBAwUMAnBDBq0AAAACXBIWXMAAAsSAAALEgHS3X78AAAABGdBTUEAALGPC/xhBQAAAwBQTFRFY2Nja2trc3Nze3t7hISEjIyMlJSUnJycpaWlra2ttbW1vb29xsbGzs7O1tbW3t7e5+fn7+/v9/f3////////////////////////////////////////////////////////////////////////////////////////////////////////////////////////////////////////////////////////////////////////////////////////////////////////////////////////////////////////////////////////////////////////////////////////////////////////////////////////////////////////////////////////////////////////////////////////////////////////////////////////////////////////////////////////////////////////////////////////////////////////////////////////////////////////////////////////////////////////////////////////////////////////////////////////////////////////////////////////////////////////////////////////////////////////////////////////////////////////////////////////////////////////////////////////////////////////////////////////////////////////////////////////////////////////////////////////////////////////////////////////////////////////////////////////////////////////////////////7Ca84wAALYNJREFUeNrtnYeWs6wWhqWISBHF+7/XESzRRCMqKk5411nn/6YlxkdgNzZJHfVMJXdfQNRORXJPVST3VEVyT1Uk91RFck9VJPdURXJPVST3VEVy96usS5ozVhSKpo0yXnEEIUkRwCTLKM2LqpKqKqZ/Fcndo0IUVfMfzRFKkwQlrfLuHzCZkxCCv14hkrtUlSqKupSMAosixSkhOHEUQBnTw0tFcpdIK0EJHhhNYaEFUmbkAQgRyXImivLtJSO5c1VwIe0/ymbZSqAdaunHKENgboQhQtKUkoyKuVeO5M5TkQuaG0rmC4ohABATxmhjfqC0gwUzkeGZ+RLgZsRBwuxqOKtI7izJQqT9tKfMNxilXOXme4gpYqxG1qx5PIMQzgw5nBf66+tHcqdIiTcQvESsocm4FKJZsViGGs0QawZmA1qq9beI5DwqA9j+VyKEsw+7g9Wynwp5LT6QITt/Ipw7vlkk51PdUClwRt+HE8x4KXj/XZITAN7INTg5dxhsnSK5AxJ5nrO57zdrWCY1I3hCB6BKvvEEqaAZbybQSm9980huv1JkZkTOsvLjR40lOVrEUAIpy/JSS0FThIcICaQkhaxsPIcd7x7JuaoUeTa5w4293pnzEBvbXSBMZPczlrbDDZj/lVTQPqxFs08zkuy6nkjORSJPUYZSko68K4Kb1axzy7Lma96haac9Yl1uJBLaLHvQhEkYmY2TpNW+S4rk1qVVIQXLaTb/49SajY11kllww/fLwR8rSy1yajm9QsmgmU4B4Xu5RXKrqjp3epRjyXskAmeVcbntF7qQtFGet6te2f5SgQHEZcsXZaO1j2+5iDlFcu9SjZ1XMoy70VBhTGy0YxBPFlwulnd+dvNXoI151bkZZZmqJCXNvwBjuDExm6l3j00yVSQ3VkG7EZYuxwtrnc84XbpUY7u+qkszX0pOJn5BM0GiLHX32b4pkuulmJ3RrLlIG248fY0Lzecmt5Ez0JoniBgoukGYVwK9pUdfXzaegIfrjeRMurMZG/aeiipLUqEUo6MJseANzdc4yYCxQqqyFASjZkxZw6VsuSBs4468KFTKIcwha4YcSgUjDPDCPhpJxjMvg+7nyWmJEps3y5q1R9eqLrkwzhfLe0OEmfVp+P2cNLZ+zWBSatSFI62KZm7UzIwommX0NXNWahiaOmdCbY6VLOnnydVCVarO8lLmKalqjXDaz2vY3mVDA2SiAdyOw7zx41RqApHWuO9Ml5ZV2c6ZcvoO2pSdtFOv8jFPtorkWmmaNfebT5LTUBkVSRcMSbvhkpvMWk4QqBOQqlLJSjJqDZqiZQ65ELLgutaCZX2OLsGkPHKBH4rkBvGuliejJOlm0HGIqqrzdBgx7bIIG5ZVm68x4/EtrwPw9BuA7He7ZxTJvdSwKcx0xhlnqY2IZIynGUfYVoJUL6dO51IKJg24lg5oxpOayWyP0VOv4CK5N1W0CxVnjqmySjCa5gZKkbMUQMTEeKjBsh3I8Ljr/aZfJKdtGDKFEM/kZ3hGXKG1Lzbz8qoqKt348tpYkloVyu9oa/WD5MrJrJbxFCRoq4dVyo65eQgy2vjp1Rl0vukHyfGZRQgs3vdCjm18LZuVr85SnNqgSjkuJ+nTBKXJLfBuTbRDsqhP0M+RG0rp3uyH+d+2uZkhgKLoQJ01Y65xxYfh2/nqRd4uaylvnMRm2bOvjE2VCUYo2pb7Vc1kpBNMGTNWxvsvp1njPjf3nrym0sKyMLWQLbiBWzuqOtvEUKRD9SvRw7MCvAVQ6t8i91G/YyxInrc0UCk4s4sXsZai7JzqLpDFkJkM7eQIs7xmcuwEZG0Apf0GELXOUoRfuOzjYn38w0m5kX6IHHujRoRk/XDIWDuLwtrMkKiLY7VfGxnPm+bDIOOyrUHhuiy6Fa3qihXA+0LaEFdKF4xkuVcb81fIldMqEJA19/vDcwYpgyY50/jVHaTBtkjHv2zKlWsT6Xo5abT/WdrVNfQvabJ0fXgFJK5lsA76DXJiGodKGyBFthzyUD2IUemJfuGAhidO0Mi5Hp4LUhcE5MOvEgVhkjVvb0Z0jbPcH7rfIKfHQ87UKZDki3DNO9JjR13b4nGD01gsBI5/9HowmJ6OYvt/0P68hhBlcuOVL+s3yDVqhwwA1hHTKksTgEg6v1+0H41g8grETIXWAxc2JzCEn/U4+13o5aci5SitioJSH5ZKUOQUS/1mQkYCCaSjF1dCcpomX/XmfzX33P4lJl0yZ/iJZHnePhkQ8Xzx9czSCDIy+dP9CoacNgsPxjnm79U4nl5/9O9Zt+5DaPZ1BlMkGSY+jYksJElqw+T702BqnilhbF9Z80T3k5MUE0KGD5bYHZz+loM5VciUqULUvDH6kpoZLmI09ophZnyBpckWkRRkmNCcHEyP30tOkc/tSpYgFI3/QzMi9g4+mTr/qmaL9No0uH5dhBh5B0NopTLosrl9+rSc6Y9Bm2fTvEp67PG8i1wz0tLvmcjh7uV5W+AoxbojWwlTRVCXjXHY/vIs+YLnWYpN0hs2ww6iL+9OJ9Hi0RqGWD56bS10ngxxE5jgbhIpdTk3YzYTC1RVhh9HrqJu0MaDsA0YfjNgNM8hzjJWWk/Y3hViXa+3ZbNyfVNIm7vcjSxl/zvsXATvVULKbB+QkiulJCFlWmlZEGNDCjIz7ADC6dFF4QZyJXG9dXMjMMu5nIDQxrkVpmSfsgwnfUlqbox3wJoft50sRn8DXd4oz4wbrruRS62PXRW6yxYQUeTvT1E7dFE7FKsUN+9tthzMmUPNg5iyA7tB7iBXMueWO18GQ3fTtOQYZjxvHwUyvUVmyxplr+pwOky2KpvbW29uKFM91caKGHJ2WtrvwkorE5/swpJ2RI3oDe8+RCcrE6ROq1rOvFVtagPREXZXklMi3zpLLgjYaaa5zYBseUVq/6zLXhdvP0TW2FOqfbJAgtpS5nq4ZlPpZWJb3ZfMXsArPvZ6vfZ7JTFpBl0LIT6fk2Za1433c+RuXkNOGYPAD7ThRqOsBIBt/TNoCiBNOm0cpYKprOpS5hgYU7+shRRCmziHCRarorNLADeG1QCItTmfzoJRani1zlfrts8xTOuPUYdwfthjvYKc8DTSPKohl5Kc0mZAmMlNM7NIUUlp3dckjO5swXKCmR2p1eBBZG3ss42GvAKXmPBuJL2MUiJK9lZCQSQ/Gi26gFzqejsvEiDsPW4IUMGlSb/hz+K6NDUBx9YvGdlW1mRExspg9ctrG7zIbiZUlJgGJ1VjQr1dBSTVsY0hV4w57nZHrxEZO2i6UGZwaU1egwbBSaAst7ECVJVvLTLs3TcvAdkohjL10FrLhjNI8pmbgBjXB5I+l6xzR9wA70LUlP2zXFBTPY7scjb9DZBRSglCMDWlDqrAjU9RzL2UXdEmS+2k0qSFlZoYgp4zMGGSkv0h9kvIeXAETgRZrQag4VJssmojXyONZ0D7jd74FAuvvbui7wpyRRKwUCKqNQsKwYU9A/ztmQSTBdQ0X+7/Xc4+vYCgNJP7ht01XgEbxdgDE6pYvvIrHHyfNFBng+HF8WO5ZeUc/oac3BV7PpecLtvZg3KUh2Zi9lrP1S0v06CNtWXNlAnyxYCI2ZeMsYm4sPb5BW97yPGeYMp55BglsKv8VRwSH1GvU3TA2TS2pUxMw5N80cIv+0olOydaO4VmycjSBAS7Z6TOJtdYbm2NL5WiVIX4mkd5smx2lekvI2YwTFIBoWlB1NyLzLgjpq+NBYd3Jgz8kxObUzgPEklxNvjjmeJ5QWrxLc2mP/pcKtnuTLbZeGwrCEMgV4VqiHhUaTsMJY0nlibQBEK+2Ib6w+MAXZsVe6dwLetQOrZVhVN1zpMFmODYuGmpsU3ozE2QCDMpFc1nbZuu/sSkVkPKrKY/MOiM8Cse+14J1G1WWLRIuz0mWue7LJOTyE2cbphRkfxLmV3fLy+HjSe8Pm0A4UIZbgKB8LEV0jM5lWWECsERNikvua2e7TEykZKJezpa6bpnNUcJKZlccGJzD5t6zvLnzIywOe35DNERoE7jOLPIMGM9ygV3iAVMrn7fSf9UQf5qmF3Qbmur6hOsWJnKFdp4B6MndiQ1/6J04628llxQWbkDAgAz050IDBVFCgHU2h/GOGnTN9nSXWA9eDg+ocADumPk5j0ZURTin/kGrCqnnzoz3kE3wIq8y6SXwpzbMrkXlerj2Wkt+3JNBj1s5jlCTgE0eXa0HEVV/5neqhyqyb7HXgx+5rgnnZtLW9cNd3vfvshNi/5Lil712f9Mi4flqPWND0NdtC1SKRjEPvZgeVzn5JE7E7J4uZQHMD4PnSc3cthwIVhnYtrqB720JN5CTq1mJ58qqpa4FWC0N9L+t8zIsJv49VfmxJ3+sbboKj+9NXyQE/9yZTPKvgQ7RD60PaS250IXdmAZU8bynP4pb3M6ftqmeyL3f7mljp0NcbuCvf3152pWpLj2Ypz4IKflv3C3Z+Xsc7X2y7vTDWbLukpvfS4PktsaUd62g+NOba5h/SwPm9sMzjzZJ4fJpRvcACrLVwA29Cl2czR/xrampzWa8EBOZSh1KTIBmSxyynOYACrMP8J2/ODmez4fMwK4PA3fIXIlrQmTYHUEIT7sU0XtB5Gh1vBZ7eh5segVee/ffJRcWb22oOHvA4ioV9qgttWkrCpJloc6YaIdo0QvTTwGnHo14LjZK1CUtM9lO5C+z3zmVK/XA6nqgneZEJu9e9GDwZT27UlYL2RzWtdgdKbPzb32JACpNZlTiFOmvoRPoNnfaz1UgLjMC9PRbHiZypavqbaxJCahrHy7prdy9qXAm09HvCTmDpCbSi3eA2K31JryS/B1h6aQJRvOsYQ3uw17QlMlX7joSQMqCesE+muLdZicXJjkujPWCpLg9c0qoq0aXW2bdb52xfEXV+xJl0UzNwF/XWWPklvw0EAXeVWscHrKioZ/armBW7dJoh1j4ss2+NEA7o6B8dfJ+XAMBTNlaiyx2U796r8AtsZWm4UiZWkzZ95b57d9SFTLswTJxHAXlN2rDLC/QXeIXMWZPRBWJVzDdNztZPsJsHYzNk+ye8tXYJZuPGxsecDlxu9pDVX8eh5DiVu2Mm1DRn2ObYP/rX3CeYJA82BqkNy8qxxsu+6VjDKTtaYwGXq55WGRq83hzf212i1+hGw5lai9BYqWdZnzu9sBbA0Jq28vhgGdfp7NJwCdTa6b44DpTq1rtqMxv2iMUCgwlnf7dZsHxWKZGzCuznQ2RUnma6HzQ65dpU0GuapJCsEO21qBFAuayPJucpvv7EabylcE2gM5ZTpZQ7vfliUJNZvWdzxXivK8SvL67kLN7d1Ct9lUwaxzui2vbIMFwvZf2vVQqca/KNLq9h5hxmqXbFPd/7ZnbXsC6RxyhfVS+oqn5iPXOy9MkUSVFSLVvXFnmHX9mNcewJfHrrc9a9DXudQHyGluMuLjkKQ+EJVDlGOKiLh7mXvJcd7ctNMsS6WvyOVectrcYpiPtssemwWKtEZVLqQKJdeTjBrnfUqVfRhrm30ClLd+/vvItUd27UlBLklWvE4Fp+Rud26sxSAjx5i1jpna9orgzrilkDZTCjOvBRa6LigQiqXp3cblSEtdndRwJPxmgwre5IlX3PQjwJSecIaHgAmRNLs7+PUm8s2K13uu1ZcrvoWcwECIjJ1yUq/JFmBZEJAd6ud0BrvFK965l8LT/XJ+HdNUPDf5weoUcmVJE6ilIjDBYZGDjHFK+fss8+VMmO9iZenFvHQhV0leSVq0b3isVfuiCiUTXUsFCQ8L3Evj0gS5f06HSYov2Sdu2x8R/6eKvSmvhHmqyyrc7VzDXMOOlVzYcyPZYSNzjZwEtPR6gPl3sXA7qAyxD0+XeHSDwRdy1ekD7VMo1PLZkaHiwW1B+LhzsEyuPMmGnOVFMvNI8yosl2Csl3dwtC01Rrk5M+ickyYyH20fnGWWDbNma04TwAPyxMd6LRkHLjAzoWxlq7tBcXAReidXMeMTeyyidrmGtl1gyUWGikB7vL0mS33kZbAS/aZkYI/H9kZOMCV3n5C5U7LPWQFVJFlg3lynvtiuOmigTJtIHhogY3K6uG5pG4knsL8vLLm7xnlBKktAt9L5e7LQodt9/9nGNR3SxAW0jbsDSvR0AlWV4dYtODRZTnUsxxoCud7PLwrT+D+wsGWrl/Plr2PPwQK+AMiVQ21qoSimd1eizOq1Im1MyH0ROFZMFAC5euQqcRLk3n/QHuKhq1r5e64ObjEIgdwgHu5RB/Z4smpvYmfuBY96zCGR04KkMMQhZ2Q3fPszT1gtPXvitypQL9wIKHO+hI/z2EAqi6LKATnogoVETuH6bkCLtxslprbp+GTe1pM1D8HhgpRgyDWrf0kzDpMsSLcgSRIPlaDd2WAaeujkHAo51TzWqtYsJeb5/qfqTxpPfLRLDIWcbpAliDAhKQbBTpqH1Ae7zGp+cwdunxr2E4iKBunSbUHEWVFVpSrLQsiqlBSmGRN9CZIZcT429IRCzoQvzacGzSdDz54uB5txdv+naaTFGT5+Skg45Lpu/rWS6tGz5bCC6cbW+uy0Z7o/p11h/6GhFw65dtABs+s12DNZHTT20kzEJZtkO3WX3Uub8ciPVa4GRK4L5hbP7aAP2/pvJUXX36Aw6cbxvPiKNVDTPGZjH4hgyVFiPiixLaceKKjM8OpraPts8eS0g1ejBruU4yPVByGRa6uqzNkNd0PYI2F6Zb2m+Zldxfot4b/nFPFAydUyM3tdygceowXKetoPBH18OMrfbOa0yg/4dUGRE6Qw9pa/5OVV2BL8tpNururx45jjBB8xLoMiZzphYlo8z0ARr510qSxpNre98PMEzFwf2TQeErl2rMHicT4BK8YDTtZyxgcfrXFtCX6aVvS/jLm2szMLtMh5UfDtIGAERmFJ3TPkOS+kFFmaV0UiJSB1lpPiALqQyJnHEpGngSPVxxzxmiznZ8OKmuoh0KyPB6zLgMjZUoFwK1EWxD4T+aMi8RlyujFCTbrHFHMfSRkERK54YIoAZ3NPWlWPi2DJdGBVyhowgrEdPcbCJPfIwMmsdDFqgrPYAJjnhzZwhEMu3G3Gm2U63KeC2ygmTk7oQBIWuSzcjcZbRXhd5GnSDKkKJoR4PF4iRHL/Z65MkN0yYPf8QiCP7vwInVzApZZbhU0PeZCJIsvLJCX4pGPMAiGnn13A0AuY8xHT1wE1QJ/X1yIQco8LeH0Kmuqu3B46nfdT/7H9xE8g9x/sSm6DlYoOJbXkJKMyJHI+yvXvVptJHexjfI5ZEhi56u67fkw4QagtQCltFAgXGw+IeS65Zy9ypC5UGwxpwe04pPWp5J7sgYMkfYWwLLjTZ8lwyD0vA/7ilqpRZVdlnIGPnR6nWZe3kyufltYZ6Q2TAlesb6GQe7IL7vGI6eeRe1yZ10uXDrDgyOkHJlN73dJpKxhyT46d3AzuZnLPHXJ3z5U3k3tgFXoveGFz6wDJPa1Abyxx8AipZ5N7rCuHEojEvU7BreTKuwHsFS2LC/uTB0juiU44JsruRy3PC2uFT44dv4/XCmBZl9LbEbePJfe4uRJmEEFydX/y8Mg9Lu6FJb/ZJgmE3OOc8CN9FM7QbeTuBrFZV+W6nW/gXW/8NC/8UAeMM3QbuUCPlJiTndjvdgI+dBc5jwc2nCtkzy25P8D8obvIPcWZM0cZKnpz+ntWd5F7SPwE2m6UKrwRdx+5RyxzOMkMucsK8TbpLnJPKEjHCbAtPs7dH7BX0UJZFhJI8bkOXkHoLnIlyB+QnSO6hoGCuzFu+YBSBpxonYbmgfe6jRx5wnYCVachmpVWt5ELf66EjU/AgwUXI85fhFEd6lRZ30iuCn/QJfzKU9W3KmZWvwnejeeL4jr3TWFGT1pFcosC4OTuCsd0G7nwnYI8P7EPzXHFde6LULg+wZ1Ve4F3ZDCJ8JAnyxvJhb53jje+3O0l6F90H7mw8zwgDZma0X3kwjZRADynn6g/3Ucu5FJZHPQK1+rGHSFlEepSF/pws7qRXGMBiCAH3iPA3UiubXMWXPUeJKFss1rR3c0hqrAMFRBydmCqm8mVgdmYobsCI9095uqgYs8PMCkHBUAumHJnGGAN+rICIHc3sF4hJ+PmbtvdF9Ae53W7YPaoAVcHQS4EcOhJK1yrAMgF4I0HuD1uVQGQa2Ng8MYjlUItQP+qAMi1G7JAzcFNydYnjrggyLWDzcSc9D1LXn73HdilAMi1W0Paf9+xIRKEXCe0rADIiRG5O+bLh0SY3xUAOdsArOvwcyahJRv2katcEORs/V53GPBZCx0GQBCAc8I/3+Huz79TIVy3uZmdleB/toS1TNtUqbSDS9D39wh4v843BUDObhnv8tBenDowmRgRKaZszLpKiteW2bs//06FcN02WdCGDQ8n68wZp5TaKgnWD663XmtVyuX4reKY2y0F7KxmjPPDNUV1JqyRL4Xk2rTEgGhhK9VwXmG0UPbL7oLkZqk7Wj4LJp+nmYdTWNOFTfp9Cczzgs1W9+1ZHX9hgGXNt45WpaA3p7oqTb1EvsCmG+DPKPX6UBBjzlomoPGIhTpiomwt/+m2E4W8MfWLAiFnvHFs/iH2YpP55vCjnB+oD1Eg5Ophwdnn0YE9pQjdW6V3f/add+zuC2iGWd1FnS25XUdUo2LHuOnb7sfZ8oDa9E5b7Fhszxfs28CRd2MutKbojgqAXIkTbMdcb+RtDl7us+tV7zzGdW6vCuOHGbV+19b5Euw8C644Bv5uhUBuiFZ2YaqNJUVkZ73d8IQ8qCR9pCDI1W/z1rYNPrstDNRNy890xcMgV+fEnjzRudLb5sts97t2dfGtI1ipqnrS6AuEXJ8Z71esLaGU/eQ6K9aWM+RU2mjZYxQMudZg6JesLaGU/ZNdNyu/AtJPGnThkLPBKNnexU0NivbHQNrnY1Qnu3/4Xq+AyJkIWBfE2nLcEjgQvbLvMwqcPWlXSGDkuqix2hJHObJ7yjggz3TEQyJnpsghEuU+6g4Fr9hTK5yDImeduuEr54Ybh9YmQXlvn3SRlMdUpYRDrrIB4FfBsas77uv9u30hj5k7wyGnraX3cqgcyfk6RLPo1stIbof4ZARptzowX3eaD3uxHsIuJHIGHXtZipXLSucvLVr1LoF+xlIXFDkbR8HDVy7b6fxFi4vxztUHwAuLnJ0wX3dtPQbmsxIhdtU4JDokDIxWy4n87/B+yCoXHrl6QmM13XNK3dYz4AVHDsFxpmXtkLq9M1wpaZoJKmdzA8+obgiO3NsDvzJf7sqn8VH2D+Uz8B5gnwRI7k3f8z17DBQ7jImUrHc65sbdA1KsoZP7Xk60I4BiwNmzP9jQ448XNXsn1Th3Omx6P0cOAtoujkWO06T3GFkdNqYZBU/ua/fLraZl0syRJlTSh0tK3a+jgD9icRt/lrsvYE1fo5fpZgPe/oEapyT6JG4m53473FBY8OS+1qqvduxSOSU55285PDUhrmU78oI+be5Tzyb3tbC8yFOn36t7txGwcTuicEdbq+DJfc/1fAk4TzzBlVm135CVoHT4Tuh1YKGT01/BfYlbCkfArYZYzXPat4VOTq0k6Rbr7MbVY8Rp4ut/Gz+jdi9wcqtdNpb8gvFYRW4nAA7PCHiEqRI4ufVi5wXrUq7/ylTFyBJqx2i0UA5pNS2+sISNg8ou71OlGRNSlYLKdqUrad78o+Ay1PaXoZNbTYvD1T/bt2xZ9MhGcHCQ8EInt372S7n2V3v355jhjo7AP1fBk1tt4jYXdR43oQILt33V/B+RAyw8duGTW3UMPiyJcrI47ixVKYwr/1otCQ3N0XsAubXEeCZGE2ZV1NV4kUuTnWcBlrJxE8ZvHFrblEeQWy0k6sZVKZuptRgPOVw73XAtihH9PIFUlmUO+sEOIeoXO85kIIPvEeTqcq3cGTce3MzIhKhy8aqt1wiHwalAQlIMADZjLi+RjWAK+0LtcA7iSM9nkGtuWQZ29VV3GyCt3z44GLo3R/F7cZn110cr543e+lPIGW0+Bxk4myclI0p/um1ysUTp/uKHJ5Hb0Z/76IZUF0A3jbtHkduO7vTY8X3T5bPI1XpL14bkmr7oN02cDyNXb1ztArHgz9DzyNVl7txzAx9/t2D1QHJG075g8/4CHibLk0fePYnYh5KrxZiW4nMnW8OLakpyccuc/FRyrxwCsm5Y+dmdb5wkEIXe06TbScU9BuZzyTW0OMKvrRyfix/KijzBjLGsDZ7BLPAChU16Mrk3fcYtP2Ce0ykqrnMHpVfT5wk6Jct2T2uAf0TOqV3+M88On9O/IrfehQPhM5a6W6bLf0XOIa55SjOHUx6HNf0vcuvo/DdQqW8KO/8zcqtRTV+t+e7XfyNXVyxnYLnk6BQD5ZZK2n9HzmrYVfBev3LOprg4W/pTJdvgWPbmKDysK9s3/VNyRizPsneT5RT7va03uto1+MfkjNRbLd+JReZXT5n/nNxbje3/iaD8e3Jvm17ZjoERakHEfyc3RbdlLdIcjuyZ8PJD/57cZBfXlsnSLJANL2VqWaovQ++u/Vn/n9wo5bqlqWID3PZI5UFue6x/gtyo6YLzn7AkQe2mHSkC7dTwC+QGdG5+uK41GbIKmkEAz0nIHtRPkFOdU7ceX9RDUQQ05ozs65I+y8jGc+gtvsZPkOvbeq0m50qIXj2/s2rkxb9XsNDb+zX8BLmuMRRAK4NDTULUeFzX0rZdeTUIroQqpOBMNKbMPSfY/QQ5uTRy3m/GNK8wLh0DLKfma9hNm7kZj1RpU0IRa79OUz5s1f866OQEHNSzTceAmSaLdmjiBqPGDsvnGfoJciUAXTX712KGaT69mCu+bYF13wcY61oWcRfWiaoQ7QbUt2qGaVpBu9SSESTvcvd+g5wRHpsaVlWWVzO/8YpxrvZobOndE2T5HXJ9a45hVVJmAoWkhyffSqSB8+bmUyoBV/VD5Lp1K22Dx8xy6xa0eq5bDnM7LvSujbE/Ra41QSCkWhpuRLf9TcydX2su9kU4kjtdeGJy2MyBMVyAfHMINomIqrrDvvwpcqXE4JU4MIZFWSthRg3ZTy4lZtxe31Dqp8g11mJRV9y6dn3eoDJfgfUNXCuC6GoL88fIWSljmfQ++YHR9qaLHbtfJFdTgYcY5tp5oBt07aj7RXLMemp9obo/ctf2Lv1Fco0kHYq59HFkvS4NPf8oubHWo5OuunSli+Qczpt3Fb8yxxrJuQaWnQSuq6iN5Eanz3lQepmBGcl5dQySmeMTTlIkV/t0DBoxiGmZQ8JBempILJLzaVwa2cBot1WWkfPyCJHcnsbeG3TaQVqRnO8x96GTvLxIrj6SnHPSOaMukjufHDylI0Qkd/psmZxTYxTJ+fbnZlX69/IiuR3n/WwWTv3334/kao8h52X57+MeydW13l+x5y7v8ZRIbnHjh195ty8juSsMlOSExpqRnEvfbg/yXqQSyZ3th/faeyD9kn6dHL3COrHy3RT1x8mdmiaYinh2xn+cnOtGKx/ybF3+NrnsAh/8Jex1x89vk7tyyCWeA8+/TW7jebtH5bUu7IfJaXqNJzfIby/inyWn8WX+QC+/ocufJaeu5pbkfqsa/h05V6+pOo5imyArK5+pnn9HzlUeNxM4CVUF9BoB+1fk9Aaz+1JPzvSEpkqqvCi9WSn/ipzMmeudOb+CYSpa2EHeWEXA08D7V+TqGtWVW5DpYh+ccTmYRMar87Dg/S9yeSJMg2W1fmOudeUgxrx/VmAt0xTmhyuf/xc55ugylRf74CTJM9b5j7R7auhB9+5/kXP/2JcKpJy82toOVi06lD2I5E5XpjhvxltXp8TKUbAUqv2hzEjufCE7PRKIUlxUdHKCKNofEvtRcof7fO0QISmFnzbtXlPlN8kZC+UOeMlnl7Hd7t1vkqtJAi8sQXnp83EBuKp1uSMY/aPkai599tI4IgWtv5Btdc5/lVxNr0/zzKvoxyFNZa0EpY6+ws+SuzxyuSA8WfqsFQqc2P0suWt2E6xrNpqDHKbOXyV3ce3QZp7rFuePkgscXKNsLbn/m+TO39N/XGtZ4t8kd3GqYJ/o98/wk+QuTqvu1fc+pz9JLhCHYFVft//8JDn9iNmyEfiSSfhJcs9Y51plGM+3WvxNck+ZLjvBuc/wm+Tqy/cUHNNcKuE3yRW3JOf2a64lx2+SCz+EMtXcdPmb5Gr5IBvFaMY9+FFytX7WsJtxyn+V3PWbeQ5ppsni75ILJkMXyW3WxRuxDulzi9IvkwulEsVFnybKL5PzeMbq6foMgP00ucdEnpMZTD9N7jlGyowr/tvkHmOkzLRY/HFyTzFSZvJ0P07uKYMuRr8+dFUv4GOaqwP7dXLPyNTNtQr5eXJPKL2c3Wfw8+QeMOjmq/ciueB9uoUjfSI5fTeZNS1U7kVyV3a+36OlIvVILvCVbnE7ViQXtnm53Dowkquv7iW1RV/280RydcDmJfzSrTOSMwp1W9a33Y+RnFWgKdZvDW4iOasw6xq+njYYyVmFWdfwddNqJNcqlF5SY4Gv7RkiuU6hRVIQWzmwLpLrFdh8idVKz9JIrldg+1hXe39FcoOCGnRw9XyhSG5QWIHnSM5ZOihyIJJzV1je+Gp/4EhuUBXUQhfJbVBQBc+rzfAjuZFC2oAcyW1SQBNmnC23KZwJk65daiQ3lQpl1OG1K43k3sUCYbd2nZHch3R6NzSr2IF7h3gAww6sXWQkNytxeygsrnN7dXcjxWhb7te94271LMhI7ovu7McXYyiHdGM4LMZQjum+uvVYzXBQt/l25dqVRXIrumnUrR8eGMmtqcR3dLtZLWaI5NZ1R/kzWr+sSG5dN5BbjaBEci66YbaM5Lzohn2RcP2qIrl13ZEoX7+qSM5B14PLHC7q7rvyBF2eNnCYLCM5F11e/eww5CI5F11uoqz74ZGck65uPOsyWUZyLro4irK+d84oknPRteRW0+HtNd19Ux6ha+saVhM8VpGciy7N0q3W67WK5Fx0acuNSM6jrnUL3K4pknPRleSyyu2aIjkXXThbrtZ89YrkXHQNObObIXW+pkjORRcELhtszZyMIjmvKs7e24NKpeVqVfNUkZyDTm8JRnZcVCTnIH1ugg47WpNTRXIuOnGdA5RsnCY7RXIuOo8cV3Wtdl1TJOei07Zj7YNmFcm56KwYSnHgmiI5F51jXKZOGdQlRXIuOqXi0t3pnlUk56QzUqsH1jijSM5J3rcWAHFkjTOK5Fx0wmyZH72mSM5FJxR/7XO/R4rknBTJPVX+t9AdXeYiOTf5L/6KY+4a+U8WRAvlGvlPrTrs4f+uSM5JJyTFj15SJOekE2IoB0MokZybThhzRxe6SM5FlX9wjjt2lhXJuSiSe6z8g4NxnbtCJ3QoddpR/E2RnIv8V6c7tIdaUSTnIu8VROtHOq4qknORdwvlcNQyknOU5+nScVvqV0VyTvJsohwON9eRnKM8J8UPJ+fqSM5RHvtwkwR7uemRnJM8jjeu+MFKy+6S7r4nz5DHXIGqqfNe8G+K5Jzkz7ZszMrjXrhRJOckf7YlrZmXIRfJOcrXdEnqes/W4hlFcm7ytZtH1ex44MsqknOTJ4cOqnzXpvAZRXKO8jRdUl/gIjlXCT/kPE2VdSTnLO1ntvR3QZGcq7yQ82RX2uu5+4Y8Rpspze1F8OPKtddz9w15ijYnV2fDLh4vKJJz1dZNIZ/kgM8hF8k5a2vo8tN3Rx5qGF6K5Fy1dcyRj4p2HzUML0VyjtruFah3dB4NyzqSc9dmch/NFd1OkHC+nrtvyGO0eTuP3dv4Cr3A9SPCNymSc9X2wCWwmz6KNMlyBIjfERfJuWtPyBn6KPJaUCTnqJ1pnqN7rZYVyTlqZ2rVY4j5TZGco3aS81MtNKdIzlE7q7/imLtdezdi0bMuKJJz1O6KS3gSu0jOUQc6f51zQZGcow50RPFXezJWJOeo/bVfflMEgyI5Nx0Ycj62Oc4oknPT/mXupCEXyTlKhjbkIjlX7W6scVbQOZJz1N4a59PCX5Gcq3bZKH6LhiaK5Fy1fdBl3Hc2daxIzlmO5iUTGUkzJr1t2llQJOcsxyNecH1OzORdkZy7HI+bOMsNeFMk5y5XbzyOucCkHUOX56XBJ4rknOUaRonkQpNrT5RILjQ57yzwXMy8oEjOXSvrHO0tmGsGXSTnLvKdXFnXrHEc0Gk1Q1NFcu5aiX9dRKxXJLdBuekrujxnnh3vmiqS2yKa1iUIZNBFchtEYFmr5UjK4cMANymS26DMFJsrBJcmTFw0Nso1sa9IbpOEmRAl/LLXn9HL5sxIboO02aQvm7G1BI7U7MQ9IFNFcluETD0QTBaXOiQqfuI21YkiuS1KzVyIE5AuGZhnbi9+UyS3RWUu2lKipaXuKvOkjuQ2qeVidq/C+UHnt1fNd0Vy22RmQ2OgzC91FyV4rCK5rdK2X+KCeXn08NQNiuQ2Stnw5dJ0eU1qziqS26airGtKTL4HkkjuSSpTpTBooBE8N2FeeCWR3FZxXVnzZManI/TMcvQ3RXJbxfJuc8h7/BKft/tjTpHcVilZZe14m6YMztqbuqRIbqNKXqi2N8qbS3elF24UyW1TiShWXc3sdLY8r6vevCK5jeKNuy1aZlMT5aKNIIMiuW0SZnHrKivf1rlrC4giuY3CGryQvXl0Ps+RWFckt01ZXbGiX+De61HIhUmeSG6HtO4G20fCABB6maESye0QA/Nj7lLvIJLbIU6XwV0Wu4zkNktXBU3NWjdf0nBVdjWS2yxdaJYrDpbSqxcVEUVym5XTXNJ2xKH7wEVy2yVzAUuWLIC7rJ4hktuuomQym4l/XRu9jOS2S+YS0JkYyoXmSR3J7ZIUiOA8AZ9DLtahhC2NARRszrS8ajtIHcntkyQZo2DOKbguYRDJ7VKlU4k/bEsGIrnQJVPTvw29L3Qi1n4FL1lXBXyvdM6uvIJIbp+orkiWwhSQ0Wp33ea5OpLbL0FLCqaRlAv3g0RyB1QU3EJ75VfxhctcJLdbipW1yk0A7LXYfe2IouvGgKFZ6QlvJLdXBkDJE0Tga9Cl36iUpHHUUQI8FYlFcruleVWWGuY8HXkHy+GvQqNECoCxJzsmktuvsmoGnZCSJgCnCKdpitGXMpS8GWwIeGt0E8kdUilVAnE2GnLf+6FU/mIskdxBcZpCnkm7gZUIwT2y+a5I7pAMJ5nktPEIcqS16Sl7VXI1kjumiokyzxtudZVo1fp311SpR3KHVXAGhChgM9iQ3chKLkEXyR2WVjynprrB7lotTJHDFanxSM6DOACwYClQeUXbwiJ8vp0SyfmQqIHCjNdEFKCrLDp9I2Qk50lKi4LqXJQ8A7a0CJw8ZUZyvqS1zLKUYQRFX1uUx9M6n6FSl5SkpqsURP0+nxQ3w/EUgJGcT5VasFrRTORVijJOCS+K+qTTOyM5zyprnSNOhaI0O9XAjOROkCxLxs/eMx7JnSV98hnHkdx5iuSi5hTJPVWR3FMVyT1VkdxTFck9VZHcUxXJPVWR3FP1B4D56bArs4k2AAAAAElFTkSuQmCC;" vertex="1" parent="1">
          <mxGeometry x="230" y="30" width="323.21" height="439" as="geometry" />
        </mxCell>
        <mxCell id="vx2pljIWrjoiTe4-OmPC-3" value="1" style="ellipse;whiteSpace=wrap;html=1;aspect=fixed;" vertex="1" parent="1">
          <mxGeometry x="490" y="350" width="20" height="20" as="geometry" />
        </mxCell>
        <mxCell id="vx2pljIWrjoiTe4-OmPC-4" value="3" style="ellipse;whiteSpace=wrap;html=1;aspect=fixed;" vertex="1" parent="1">
          <mxGeometry x="404" y="160" width="20" height="20" as="geometry" />
        </mxCell>
        <mxCell id="vx2pljIWrjoiTe4-OmPC-5" value="2" style="ellipse;whiteSpace=wrap;html=1;aspect=fixed;" vertex="1" parent="1">
          <mxGeometry x="360" y="180" width="20" height="20" as="geometry" />
        </mxCell>
        <mxCell id="vx2pljIWrjoiTe4-OmPC-8" value="" style="endArrow=classic;html=1;rounded=0;entryX=1;entryY=1;entryDx=0;entryDy=0;exitX=0;exitY=0;exitDx=0;exitDy=0;" edge="1" parent="1" source="vx2pljIWrjoiTe4-OmPC-3" target="vx2pljIWrjoiTe4-OmPC-5">
          <mxGeometry width="50" height="50" relative="1" as="geometry">
            <mxPoint x="390" y="280" as="sourcePoint" />
            <mxPoint x="440" y="230" as="targetPoint" />
          </mxGeometry>
        </mxCell>
        <mxCell id="vx2pljIWrjoiTe4-OmPC-9" value="" style="endArrow=classic;html=1;rounded=0;entryX=0.5;entryY=1;entryDx=0;entryDy=0;exitX=0;exitY=0;exitDx=0;exitDy=0;" edge="1" parent="1" source="vx2pljIWrjoiTe4-OmPC-3" target="vx2pljIWrjoiTe4-OmPC-4">
          <mxGeometry width="50" height="50" relative="1" as="geometry">
            <mxPoint x="390" y="280" as="sourcePoint" />
            <mxPoint x="440" y="230" as="targetPoint" />
          </mxGeometry>
        </mxCell>
        <mxCell id="vx2pljIWrjoiTe4-OmPC-10" value="1 - Simulador de Dados Iot rodando local (SÃ£o Paulo BR)&lt;br&gt;2 - Servidor Mysql Azure (South Central US)&lt;br&gt;3 - Iot (East US)" style="text;html=1;align=center;verticalAlign=middle;resizable=0;points=[];autosize=1;strokeColor=none;fillColor=none;" vertex="1" parent="1">
          <mxGeometry x="532" y="180" width="330" height="60" as="geometry" />
        </mxCell>
      </root>
    </mxGraphModel>
  </diagram>
</mxfile>
